<?xml version="1.0" ?><!DOCTYPE svg  PUBLIC '-//W3C//DTD SVG 1.1//EN'  'http://www.w3.org/Graphics/SVG/1.1/DTD/svg11.dtd'><svg enable-background="new 0 0 100 100" height="100px" id="Layer_1" version="1.1" viewBox="0 0 100 100" width="100px" xml:space="preserve" xmlns="http://www.w3.org/2000/svg" xmlns:xlink="http://www.w3.org/1999/xlink"><g><circle cx="50" cy="50" r="45"/><path clip-rule="evenodd" d="M45.88,36.727c-3.14,0-6.209,0-9.332,0   c-0.011,0.217-0.026,0.398-0.026,0.58c-0.001,6.252-0.013,12.504,0.013,18.756c0.004,0.92,0.091,1.861,0.309,2.754   c0.646,2.645,2.493,4.008,5.081,4.455c0.824,0.143,1.672,0.207,2.51,0.213c3.709,0.021,7.419,0.029,11.129-0.006   c0.972-0.008,1.959-0.104,2.91-0.299c2.919-0.605,4.653-2.602,4.918-5.574c0.055-0.615,0.083-1.234,0.083-1.85   c0.007-6.115,0.004-12.23,0.004-18.344c0-0.205,0-0.408,0-0.664c-0.224-0.01-0.405-0.027-0.587-0.027   c-2.026-0.002-4.054,0.004-6.08-0.002c-1.702-0.004-2.688-0.988-2.691-2.682c-0.002-0.84,0-1.68,0-2.592c0.213,0,0.395,0,0.576,0   c3.692,0,7.385,0,11.077,0.002c1.842,0,2.778,0.947,2.778,2.799c0.001,7.523,0,15.045,0.001,22.568   c0.001,1.982-0.314,3.898-1.204,5.688c-1.527,3.07-4.114,4.775-7.365,5.502c-1.381,0.309-2.816,0.482-4.23,0.506   c-3.897,0.066-7.797,0.047-11.696,0.012c-2.211-0.02-4.375-0.373-6.412-1.297c-3.68-1.668-5.601-4.604-6.084-8.543   c-0.095-0.764-0.105-1.541-0.106-2.312c-0.008-7.385-0.005-14.771-0.005-22.156c0-1.812,0.946-2.764,2.761-2.766   c2.989-0.004,5.978-0.004,8.966,0c1.691,0.002,2.699,1.006,2.705,2.686C45.883,34.971,45.88,35.811,45.88,36.727z" fill="#FFFFFF" fill-rule="evenodd"/></g></svg>